<?xml version="1.0" encoding="UTF-8"?>
<svg version="1.1" xmlns="http://www.w3.org/2000/svg" width="126" height="38">
<path d="M0 0 C3 1 3 1 4.1875 3.0625 C4.455625 3.701875 4.72375 4.34125 5 5 C5.598125 4.175 6.19625 3.35 6.8125 2.5 C7.534375 1.675 8.25625 0.85 9 0 C9.99 0 10.98 0 12 0 C11.34 3.96 10.68 7.92 10 12 C9.01 12 8.02 12 7 12 C7 10.35 7 8.7 7 7 C6.01 8.485 6.01 8.485 5 10 C4.01 10 3.02 10 2 10 C1.67 9.34 1.34 8.68 1 8 C0.67 9.32 0.34 10.64 0 12 C-0.99 12 -1.98 12 -3 12 C-2.69230293 10.18667846 -2.37870936 8.37435655 -2.0625 6.5625 C-1.80146484 5.04849609 -1.80146484 5.04849609 -1.53515625 3.50390625 C-1 1 -1 1 0 0 Z " fill="#FFFFFF" transform="translate(77,12)"/>
<path d="M0 0 C0.99 0 1.98 0 3 0 C2.67 4.29 2.34 8.58 2 13 C1.01 13 0.02 13 -1 13 C-1.33 11.35 -1.66 9.7 -2 8 C-4.02045442 8.60183749 -6.02111039 9.27306096 -8 10 C-8.33 10.66 -8.66 11.32 -9 12 C-9.66 12 -10.32 12 -11 12 C-10.125 4.375 -10.125 4.375 -9 1 C-8.01 1 -7.02 1 -6 1 C-5.34 2.65 -4.68 4.3 -4 6 C-3.401875 5.01 -2.80375 4.02 -2.1875 3 C-1.1046875 1.515 -1.1046875 1.515 0 0 Z " fill="#FFFFFF" transform="translate(17,12)"/>
<path d="M0 0 C0 1.32 0 2.64 0 4 C0.2475 4.66 0.495 5.32 0.75 6 C1 8 1 8 -0.5 10.3125 C-3 12 -3 12 -6.75 11.75 C-8.35875 11.37875 -8.35875 11.37875 -10 11 C-10.08096803 9.54257537 -10.13917774 8.08387193 -10.1875 6.625 C-10.22230469 5.81289063 -10.25710937 5.00078125 -10.29296875 4.1640625 C-10.19628906 3.44992188 -10.09960938 2.73578125 -10 2 C-6.3558226 -0.4294516 -4.28758728 -0.16179575 0 0 Z M-6 2 C-6 2.99 -6 3.98 -6 5 C-4.68 4.34 -3.36 3.68 -2 3 C-3.32 2.67 -4.64 2.34 -6 2 Z M-7 7 C-7 7.99 -7 8.98 -7 10 C-5.68 9.67 -4.36 9.34 -3 9 C-3 8.01 -3 7.02 -3 6 C-4.36893239 5.94729537 -4.36893239 5.94729537 -7 7 Z " fill="#FFFFFF" transform="translate(113,13)"/>
<path d="M0 0 C0.99 0 1.98 0 3 0 C2.67 3.96 2.34 7.92 2 12 C-2.19174654 10.95206337 -3.21592961 10.08236365 -6 7 C-6.33 8.98 -6.66 10.96 -7 13 C-7.99 13 -8.98 13 -10 13 C-9 4.42857143 -9 4.42857143 -8 1 C-7.01 1 -6.02 1 -5 1 C-2.8125 4 -2.8125 4 -1 7 C-0.67 4.69 -0.34 2.38 0 0 Z " fill="#FFFFFF" transform="translate(57,12)"/>
<path d="M0 0 C7.38461538 -0.49230769 7.38461538 -0.49230769 10.5 2 C10.995 2.66 11.49 3.32 12 4 C10.93363297 7.09246438 9.99355341 8.00415447 7.1875 9.8125 C3.81023996 11.07069492 2.36888105 11.0899321 -1 10 C-0.67 6.7 -0.34 3.4 0 0 Z M3 2 C2.67 4.31 2.34 6.62 2 9 C3.98 8.34 5.96 7.68 8 7 C8 5.68 8 4.36 8 3 C6.35 2.67 4.7 2.34 3 2 Z " fill="#FFFFFF" transform="translate(62,13)"/>
<path d="M0 0 C0.70125 0.268125 1.4025 0.53625 2.125 0.8125 C2.875 3 2.875 3 3.125 5.8125 C1.625 8.5625 1.625 8.5625 -0.875 10.8125 C-4.5625 11.6875 -4.5625 11.6875 -7.875 11.8125 C-8.875 10.8125 -8.875 10.8125 -9.3125 8.0625 C-8.875 4.8125 -8.875 4.8125 -6.1875 1.875 C-2.875 -0.1875 -2.875 -0.1875 0 0 Z M-5.875 4.8125 C-6.75322312 6.89783633 -6.75322312 6.89783633 -6.875 8.8125 C-5.885 9.1425 -4.895 9.4725 -3.875 9.8125 C-1.5859211 8.78348426 -1.5859211 8.78348426 0.125 6.8125 C0.45925735 4.18624861 0.45925735 4.18624861 0.125 1.8125 C-2.1955978 1.8125 -4.06667857 3.546675 -5.875 4.8125 Z " fill="#FFFFFF" transform="translate(98.875,12.1875)"/>
<path d="M0 0 C2.97 0 5.94 0 9 0 C9 0.66 9 1.32 9 2 C7.02 2 5.04 2 3 2 C3 2.99 3 3.98 3 5 C4.98 5 6.96 5 9 5 C9 5.66 9 6.32 9 7 C7.02 7.33 5.04 7.66 3 8 C2.67 8.99 2.34 9.98 2 11 C1.34 11 0.68 11 0 11 C0 7.37 0 3.74 0 0 Z " fill="#FFFFFF" transform="translate(33,13)"/>
<path d="M0 0 C0.66 0 1.32 0 2 0 C1.731875 0.66 1.46375 1.32 1.1875 2 C-0.25705047 5.64939067 -1.62871178 9.32245433 -3 13 C-3.66 13 -4.32 13 -5 13 C-5.28875 11.9275 -5.5775 10.855 -5.875 9.75 C-6.72820109 6.90599636 -7.5636503 4.56491017 -9 2 C-8.38125 2.165 -7.7625 2.33 -7.125 2.5 C-5.03936614 3.07634644 -5.03936614 3.07634644 -3 3 C-2.505 2.505 -2.01 2.01 -1.5 1.5 C-1.005 1.005 -0.51 0.51 0 0 Z " fill="#FFFFFF" transform="translate(30,11)"/>
<path d="M0 0 C0.99 0.33 1.98 0.66 3 1 C2.67 4.3 2.34 7.6 2 11 C0.68 11 -0.64 11 -2 11 C-1.34 7.37 -0.68 3.74 0 0 Z " fill="#FFFFFF" transform="translate(116,13)"/>
<path d="M0 0 C0.66 0 1.32 0 2 0 C1.67 3.63 1.34 7.26 1 11 C0.01 10.67 -0.98 10.34 -2 10 C-1.85950482 8.52031676 -1.71245174 7.04125484 -1.5625 5.5625 C-1.48128906 4.73878906 -1.40007813 3.91507813 -1.31640625 3.06640625 C-1 1 -1 1 0 0 Z " fill="#FFFFFF" transform="translate(44,13)"/>
</svg>
